<?xml version="1.0" encoding="utf-8"?>
<!-- Generator: Adobe Illustrator 19.0.0, SVG Export Plug-In . SVG Version: 6.00 Build 0)  -->
<svg version="1.1" id="Layer_1" xmlns="http://www.w3.org/2000/svg" xmlns:xlink="http://www.w3.org/1999/xlink" x="0px" y="0px"
	 viewBox="0 0 1920 1323" style="enable-background:new 0 0 1920 1323;" xml:space="preserve">
<style type="text/css">
	.st0{opacity:0.5;}
	.st1{fill:#F7BB39;}
</style>
<g id="XMLID_1_" class="st0">
	<path id="XMLID_32_" class="st1" d="M149,639.6v39.8H64.7v141.5h103.5v40.3h-142V463.5h142v40.3H64.7v135.8H149z"/>
	<path id="XMLID_34_" class="st1" d="M237.7,861.2h-34.5V463.5H252L331.9,751V463.5h34v397.7H326l-88.3-321.6V861.2z"/>
	<path id="XMLID_36_" class="st1" d="M557.7,559.5v34.1h-36.5v-36.4c0-35.8-12.3-57.4-40.4-57.4c-27.6,0-40.4,21.6-40.4,57.4v210.2
		c0,35.8,12.8,57.4,40.4,57.4c28.1,0,40.4-21.6,40.4-57.4v-79.5h-35.5v-39.8h72v117c0,60.2-24.7,100-77.9,100
		c-52.8,0-77.4-39.8-77.4-100V559.5c0-60.2,24.7-100,77.4-100C533.1,459.5,557.7,499.3,557.7,559.5z"/>
	<path id="XMLID_38_" class="st1" d="M632.7,463.5v397.7h-38.5V463.5H632.7z"/>
	<path id="XMLID_40_" class="st1" d="M706.1,861.2h-34.5V463.5h48.8L800.3,751V463.5h34v397.7h-39.9l-88.3-321.6V861.2z"/>
	<path id="XMLID_42_" class="st1" d="M996.5,639.6v39.8h-84.3v141.5h103.5v40.3h-142V463.5h142v40.3H912.2v135.8H996.5z"/>
	<path id="XMLID_44_" class="st1" d="M1174,639.6v39.8h-84.3v141.5h103.5v40.3h-142V463.5h142v40.3h-103.5v135.8H1174z"/>
	<path id="XMLID_46_" class="st1" d="M1305.7,463.5c54.2,0,76.9,31.8,76.9,90.9v32.4c0,43.7-13.3,71-42.9,81.8
		c31.6,10.8,43.4,40.3,43.4,83v61.9c0,17.6,0.5,34.1,6.9,47.7h-39c-4.4-11.4-6.4-21.6-6.4-48.3v-62.5c0-44.9-18.2-59.1-50.3-59.1
		h-27.1v169.9h-38.5V463.5H1305.7z M1295.8,651c30.6,0,48.8-11.4,48.8-54.5v-38.1c0-35.8-11.3-54.5-39.9-54.5h-37.5V651H1295.8z"/>
</g>
<g id="XMLID_4_" class="st0">
	<path id="XMLID_18_" class="st1" d="M143,1088v23.9H48.9v165.9h113.4v23.9H26.2V903.9h136.1v23.9H48.9V1088H143z"/>
	<path id="XMLID_20_" class="st1" d="M287,1116.4l-70,185.2h-22.2l77.9-206.2l-72.5-191.5h23.7l65.1,171l65.6-171h21.7l-72.5,191.5
		l77.4,206.2H357L287,1116.4z"/>
	<path id="XMLID_22_" class="st1" d="M533.1,1088v23.9h-94.2v165.9h113.4v23.9H416.2V903.9h136.1v23.9H438.9V1088H533.1z"/>
	<path id="XMLID_24_" class="st1" d="M736.7,1001v33H715v-34.7c0-42.6-14.3-75-52.3-75c-38,0-52.3,32.4-52.3,75v206.8
		c0,42.6,14.3,74.4,52.3,74.4c38,0,52.3-31.8,52.3-74.4V1159h21.7v45.5c0,57.4-21.7,100.6-74.5,100.6s-74.5-43.2-74.5-100.6V1001
		c0-57.4,21.7-100.6,74.5-100.6S736.7,943.6,736.7,1001z"/>
	<path id="XMLID_26_" class="st1" d="M795.4,1205.6c0,42.6,13.8,75.6,51.8,75.6c38,0,51.8-33,51.8-75.6V903.9h21.2v300.6
		c0,56.8-20.7,100.6-73.5,100.6s-74-43.7-74-100.6V903.9h22.7V1205.6z"/>
	<path id="XMLID_28_" class="st1" d="M1017.3,1301.6V927.7h-70v-23.9h163.2v23.9h-70.5v373.9H1017.3z"/>
	<path id="XMLID_30_" class="st1" d="M1255.4,1088v23.9h-94.2v165.9h113.4v23.9h-136.1V903.9h136.1v23.9h-113.4V1088H1255.4z"/>
</g>
<g id="XMLID_3_" class="st0">
	<path id="XMLID_5_" class="st1" d="M102.1,10.5c53.3,0,76.4,40.3,76.4,98.9v200c0,58.5-23.2,98.9-76.4,98.9H26.2V10.5H102.1z
		 M101.6,384.3c38.5,0,54.2-30.1,54.2-73.9V108.2c0-43.7-16.3-73.9-54.2-73.9H48.9v350H101.6z"/>
	<path id="XMLID_8_" class="st1" d="M332.9,194.6v23.9h-94.2v165.9h113.4v23.9H216V10.5h136.1v23.9H238.7v160.2H332.9z"/>
	<path id="XMLID_10_" class="st1" d="M534.5,106.5v8.5h-21.7v-10.2c0-42-13.8-73.9-51.3-73.9c-37.5,0-51.3,31.2-51.3,73.3
		c0,96.6,124.7,98.3,124.7,207.9c0,57.4-21.7,99.4-74.5,99.4c-52.8,0-74.5-42-74.5-99.4v-20.5h21.7v22.2c0,42.6,14.3,73.3,52.3,73.3
		c38,0,52.3-30.7,52.3-73.3c0-95.5-124.7-97.2-124.7-207.9c0-59.7,22.7-98.3,73.5-98.9C513.3,7.1,534.5,49.1,534.5,106.5z"/>
	<path id="XMLID_12_" class="st1" d="M594.2,10.5v397.7h-22.7V10.5H594.2z"/>
	<path id="XMLID_14_" class="st1" d="M781.1,107.6v29.5h-21.7v-31.2c0-42.6-14.3-75-52.3-75s-52.3,32.4-52.3,75v206.8
		c0,42.6,14.3,74.4,52.3,74.4s52.3-31.8,52.3-74.4v-85.8h-45.9v-23.9h67.6v108c0,57.4-21.7,100.6-74.5,100.6s-74.5-43.2-74.5-100.6
		V107.6c0-57.4,21.7-100.6,74.5-100.6S781.1,50.2,781.1,107.6z"/>
	<path id="XMLID_16_" class="st1" d="M839.7,408.2H819V10.5h29.6l103.5,335.8V10.5h20.7v397.7h-25.1l-108-354.5V408.2z"/>
</g>
</svg>
