<?xml version="1.0" encoding="utf-8"?>
<!-- Generator: Adobe Illustrator 19.0.0, SVG Export Plug-In . SVG Version: 6.00 Build 0)  -->
<svg version="1.1" xmlns="http://www.w3.org/2000/svg" xmlns:xlink="http://www.w3.org/1999/xlink" x="0px" y="0px"
	 viewBox="0 0 249.2 146.3" style="enable-background:new 0 0 249.2 146.3;" xml:space="preserve">
<style type="text/css">
	.st0{fill:#FAAB18;}
	.st1{fill:#33C5F3;}
	.st2{display:none;}
	.st3{display:inline;}
	.st4{display:inline;opacity:0.88;fill:#FAAF40;}
	.st5{display:inline;fill:none;stroke:#33C5F3;stroke-width:0.5;stroke-miterlimit:10;}
</style>
<g id="Layer_1">
	<path id="XMLID_33_" class="st0" d="M92.9,16l99.8,20l3.3,0.7l3-1.5l33.6-16.2l-34.4,108L92.9,16 M249.2,0l-54.5,26.3L64,0
		l138.7,146.3L249.2,0L249.2,0z"/>
	<path id="XMLID_289_" class="st1" d="M57.8,22.2L92.7,59l-70.3,56.5L57.8,22.2 M54.1,3.7L0.2,146.3L107.4,60L54.1,3.7L54.1,3.7z"/>
</g>
<g id="Layer_2" class="st2">
	
		<text id="XMLID_34_" transform="matrix(1 0 0 1 -119.2979 -13.6852)" class="st3" style="font-family:'MyriadPro-Regular'; font-size:12px;">x 438.025 pt ,391.446 pt</text>
	
		<text id="XMLID_35_" transform="matrix(1 0 0 1 -112.2979 2.3148)" class="st3" style="font-family:'MyriadPro-Regular'; font-size:12px;">y 440.651 pt</text>
	
		<text id="XMLID_36_" transform="matrix(1 0 0 1 -126.6309 65.6483)" class="st3" style="font-family:'MyriadPro-Regular'; font-size:12px;">y 294.352 pt</text>
	
		<text id="XMLID_37_" transform="matrix(1 0 0 1 -123.9644 153.9813)" class="st3" style="font-family:'MyriadPro-Regular'; font-size:12px;">46.579</text>
	
		<text id="XMLID_280_" transform="matrix(1 0 0 1 -119.6309 174.3152)" class="st3" style="font-family:'MyriadPro-Regular'; font-size:12px;">235.377</text>
	<g id="XMLID_290_" class="st3">
		<path id="XMLID_304_" class="st0" d="M-91.8,370.8l102.7,19.8l3.3,0.6l3-1.4l33.6-16.2L16.2,481.9L-91.8,370.8 M67.3,354.5
			l-54.5,26.3l-133.9-25.9L20.7,500.8L67.3,354.5L67.3,354.5z"/>
	</g>
	<g id="XMLID_284_" class="st3">
		<g id="XMLID_309_">
			<path id="XMLID_310_" class="st1" d="M-132,372.9l41.3,39.9l-72.4,58.3L-132,372.9 M-136.6,354.5l-46,145.2l107.1-86.3
				L-136.6,354.5L-136.6,354.5z"/>
		</g>
	</g>
	
		<rect id="XMLID_283_" x="-105.3" y="374.9" transform="matrix(0.7035 -0.7107 0.7107 0.7035 -302.0231 42.3122)" class="st4" width="10" height="16.5"/>
	<polygon id="XMLID_282_" class="st5" points="19.1,498.3 -183.6,498.3 -137.3,352.4 65.3,352.4 	"/>
	
		<rect id="XMLID_279_" x="83.5" y="24.9" transform="matrix(0.7269 -0.6868 0.6868 0.7269 1.3618 69.8218)" class="st4" width="10" height="16.5"/>
</g>
</svg>
